<?xml version="1.0" encoding="UTF-8"?>
<svg xmlns="http://www.w3.org/2000/svg" xmlns:xlink="http://www.w3.org/1999/xlink" width="170px" height="87px" viewBox="0 0 169 87" version="1.1">
<g id="surface1">
<path style=" stroke:none;fill-rule:nonzero;fill:rgb(13%,13%,13%);fill-opacity:1;" d="M 91.148438 11.160156 C 85.777344 12.058594 81.355469 16.488281 80.289062 21.988281 C 79.792969 24.546875 79.792969 61.460938 80.289062 64.019531 C 81.378906 69.679688 85.824219 73.992188 91.480469 74.871094 C 92.542969 75.035156 102.171875 75.105469 120.171875 75.058594 C 145.652344 74.988281 147.332031 74.964844 148.5625 74.5625 C 153.363281 72.949219 156.910156 69.066406 157.90625 64.324219 C 158.425781 61.863281 158.425781 24.144531 157.90625 21.679688 C 156.910156 16.941406 153.363281 13.054688 148.5625 11.445312 C 147.332031 11.039062 145.699219 11.015625 119.820312 10.992188 C 104.726562 10.96875 91.832031 11.039062 91.148438 11.160156 Z M 147.425781 18.671875 C 148.914062 19.40625 150.359375 21.085938 150.808594 22.578125 C 151.046875 23.386719 151.164062 24.804688 151.164062 26.820312 L 151.164062 29.851562 L 87.007812 29.851562 L 87.101562 26.464844 C 87.171875 23.621094 87.269531 22.910156 87.71875 21.914062 C 88.59375 20.019531 90.128906 18.71875 92.140625 18.21875 C 92.542969 18.125 104.890625 18.078125 119.582031 18.078125 L 146.3125 18.125 Z M 151.117188 49.636719 C 151.1875 63.78125 151.1875 63.804688 149.507812 65.699219 C 148.988281 66.292969 148.039062 67.027344 147.425781 67.335938 L 146.3125 67.878906 L 91.90625 67.878906 L 90.699219 67.238281 C 89.300781 66.503906 88.378906 65.511719 87.671875 63.96875 C 87.195312 62.929688 87.171875 62.523438 87.101562 50.253906 C 87.054688 43.285156 87.078125 37.457031 87.148438 37.269531 C 87.269531 37.007812 92.78125 36.960938 119.15625 37.007812 L 151.046875 37.078125 Z M 151.117188 49.636719 "/>
<path style=" stroke:none;fill-rule:nonzero;fill:rgb(13%,13%,13%);fill-opacity:1;" d="M 92.496094 20.898438 C 90.601562 21.867188 89.941406 24.121094 91.027344 25.871094 C 91.761719 27.082031 92.851562 27.578125 94.363281 27.4375 C 95.40625 27.339844 95.761719 27.175781 96.46875 26.464844 C 97.179688 25.753906 97.320312 25.421875 97.417969 24.308594 C 97.558594 22.648438 96.894531 21.464844 95.476562 20.824219 C 94.222656 20.257812 93.75 20.257812 92.496094 20.898438 Z M 92.496094 20.898438 "/>
<path style=" stroke:none;fill-rule:nonzero;fill:rgb(13%,13%,13%);fill-opacity:1;" d="M 95.6875 43.359375 C 94.339844 44.234375 93.796875 46.152344 94.386719 47.765625 C 94.53125 48.121094 95.382812 49.164062 96.28125 50.085938 L 97.9375 51.792969 L 96.492188 53.214844 C 94.410156 55.25 94.082031 55.890625 94.199219 57.480469 C 94.292969 58.59375 94.4375 58.925781 95.144531 59.636719 C 96.042969 60.535156 97.464844 60.890625 98.789062 60.558594 C 99.167969 60.464844 100.777344 59.066406 102.691406 57.171875 C 107.894531 52.054688 107.917969 51.648438 103.046875 46.722656 C 101.34375 44.96875 99.664062 43.40625 99.308594 43.214844 C 98.363281 42.71875 96.539062 42.789062 95.6875 43.359375 Z M 95.6875 43.359375 "/>
<path style=" stroke:none;fill-rule:nonzero;fill:rgb(13%,13%,13%);fill-opacity:1;" d="M 111.492188 53.996094 C 109.671875 54.847656 108.914062 56.792969 109.71875 58.617188 C 110.617188 60.605469 110.78125 60.652344 118.304688 60.652344 C 124.691406 60.652344 124.859375 60.652344 125.636719 60.109375 C 127.816406 58.664062 127.765625 55.820312 125.542969 54.160156 C 124.90625 53.6875 124.550781 53.664062 118.683594 53.59375 C 112.957031 53.546875 112.414062 53.570312 111.492188 53.996094 Z M 111.492188 53.996094 "/>
<path style=" stroke:none;fill-rule:nonzero;fill:rgb(13%,13%,13%);fill-opacity:1;" d="M 72.859375 52.21875 C 72.859375 53.046875 72.886719 53.070312 73.710938 53.070312 C 74.515625 53.070312 74.539062 53.046875 74.46875 52.289062 C 74.398438 51.625 74.304688 51.53125 73.640625 51.460938 C 72.886719 51.390625 72.859375 51.414062 72.859375 52.21875 Z M 72.859375 52.21875 "/>
<path style=" stroke:none;fill-rule:nonzero;fill:rgb(13%,13%,13%);fill-opacity:1;" d="M 21.644531 52.21875 C 19.847656 53.023438 19.042969 54.707031 19.042969 57.691406 C 19.042969 59.492188 19.136719 60.015625 19.632812 61.007812 C 21.433594 64.632812 26.375 64.113281 27.535156 60.179688 C 28.554688 56.769531 27.464844 53.191406 25.148438 52.21875 C 24.175781 51.792969 22.566406 51.816406 21.644531 52.21875 Z M 24.601562 53.664062 C 25.761719 54.257812 26.140625 55.25 26.117188 57.714844 C 26.117188 59.421875 26.023438 60.015625 25.667969 60.558594 C 25.003906 61.601562 24.578125 61.816406 23.417969 61.816406 C 22.261719 61.816406 21.835938 61.578125 21.171875 60.582031 C 20.558594 59.636719 20.535156 55.914062 21.125 54.800781 C 21.835938 53.449219 23.277344 52.976562 24.601562 53.664062 Z M 24.601562 53.664062 "/>
<path style=" stroke:none;fill-rule:nonzero;fill:rgb(13%,13%,13%);fill-opacity:1;" d="M 38.132812 57.503906 C 37.1875 60.464844 36.429688 63 36.429688 63.09375 C 36.429688 63.210938 36.761719 63.261719 37.1875 63.210938 C 37.875 63.140625 37.992188 63.023438 38.300781 62.003906 L 38.652344 60.890625 L 43.03125 60.890625 L 43.339844 62.003906 C 43.644531 63.070312 43.714844 63.140625 44.542969 63.210938 C 45.019531 63.261719 45.421875 63.261719 45.421875 63.210938 C 45.421875 63.164062 44.640625 60.675781 43.691406 57.691406 L 41.964844 52.242188 L 40.902344 52.171875 L 39.835938 52.101562 Z M 42.414062 59.28125 C 42.25 59.609375 39.269531 59.492188 39.269531 59.160156 C 39.269531 59.019531 39.601562 57.738281 40.027344 56.339844 L 40.808594 53.804688 L 41.660156 56.460938 C 42.132812 57.929688 42.464844 59.183594 42.414062 59.28125 Z M 42.414062 59.28125 "/>
<path style=" stroke:none;fill-rule:nonzero;fill:rgb(13%,13%,13%);fill-opacity:1;" d="M 51.335938 53.640625 C 51.335938 54.257812 50.601562 54.566406 49.179688 54.589844 C 47.878906 54.613281 47.691406 54.683594 47.050781 55.394531 C 46.507812 56.011719 46.367188 56.363281 46.367188 57.289062 C 46.367188 57.929688 46.53125 58.640625 46.746094 58.949219 C 47.097656 59.46875 47.097656 59.539062 46.625 60.039062 C 46.082031 60.605469 45.964844 61.578125 46.390625 62.003906 C 46.601562 62.21875 46.53125 62.453125 46.152344 62.929688 C 45.492188 63.78125 45.515625 64.800781 46.246094 65.511719 C 46.769531 66.054688 47.003906 66.101562 48.945312 66.101562 C 50.128906 66.101562 51.335938 65.984375 51.664062 65.84375 C 52.445312 65.488281 53.0625 64.160156 52.871094 63.261719 C 52.613281 62.074219 51.761719 61.601562 49.820312 61.601562 C 47.976562 61.601562 47.429688 61.339844 47.808594 60.605469 C 47.976562 60.273438 48.304688 60.179688 49.230469 60.179688 C 50.292969 60.179688 50.53125 60.085938 51.238281 59.375 C 51.878906 58.734375 52.042969 58.378906 52.042969 57.597656 C 52.042969 57.074219 51.925781 56.390625 51.785156 56.082031 C 51.570312 55.582031 51.617188 55.417969 52.136719 54.894531 C 53.011719 54.019531 52.964844 53.308594 52.042969 53.308594 C 51.59375 53.308594 51.335938 53.425781 51.335938 53.640625 Z M 50.03125 56.011719 C 50.363281 56.246094 50.507812 56.625 50.507812 57.289062 C 50.507812 58.425781 50.082031 58.996094 49.179688 58.996094 C 47.925781 58.996094 47.3125 57.101562 48.257812 56.152344 C 48.804688 55.605469 49.417969 55.558594 50.03125 56.011719 Z M 51.191406 63.542969 C 51.710938 64.375 51.097656 64.800781 49.300781 64.871094 C 47.574219 64.941406 46.933594 64.609375 47.242188 63.78125 C 47.476562 63.117188 47.832031 63.023438 49.417969 63.070312 C 50.554688 63.117188 51.003906 63.234375 51.191406 63.542969 Z M 51.191406 63.542969 "/>
<path style=" stroke:none;fill-rule:nonzero;fill:rgb(13%,13%,13%);fill-opacity:1;" d="M 31.460938 55.132812 C 30.964844 55.773438 30.964844 55.773438 30.824219 55.25 C 30.753906 54.894531 30.515625 54.730469 30.136719 54.730469 L 29.570312 54.730469 L 29.570312 63.261719 L 30.941406 63.261719 L 31.035156 60.203125 C 31.109375 57.597656 31.179688 57.074219 31.558594 56.648438 C 31.816406 56.363281 32.265625 56.152344 32.574219 56.152344 C 33.046875 56.152344 33.117188 56.035156 33.117188 55.324219 C 33.117188 54.613281 33.046875 54.492188 32.550781 54.492188 C 32.195312 54.492188 31.769531 54.753906 31.460938 55.132812 Z M 31.460938 55.132812 "/>
<path style=" stroke:none;fill-rule:nonzero;fill:rgb(13%,13%,13%);fill-opacity:1;" d="M 55.070312 54.871094 C 54.339844 55.25 53.9375 55.890625 53.9375 56.601562 C 53.9375 57.335938 55.167969 57.289062 55.472656 56.554688 C 55.664062 56.152344 55.898438 56.035156 56.65625 56.035156 C 57.601562 56.035156 57.601562 56.035156 57.675781 57.027344 L 57.746094 58.023438 L 56.609375 58.191406 C 55.09375 58.402344 54.265625 58.851562 53.816406 59.707031 C 53.085938 61.128906 53.511719 62.621094 54.789062 63.164062 C 55.78125 63.589844 56.773438 63.425781 57.390625 62.761719 C 57.792969 62.3125 57.792969 62.3125 58.125 62.785156 C 58.359375 63.117188 58.714844 63.261719 59.402344 63.261719 C 60.203125 63.261719 60.324219 63.1875 60.324219 62.691406 C 60.324219 62.335938 60.15625 62.074219 59.851562 62.003906 C 59.402344 61.886719 59.378906 61.671875 59.378906 59.136719 C 59.378906 57.527344 59.257812 56.152344 59.09375 55.796875 C 58.550781 54.589844 56.46875 54.113281 55.070312 54.871094 Z M 57.722656 60.25 C 57.722656 61.175781 56.988281 62.074219 56.230469 62.074219 C 55.496094 62.074219 55.117188 61.648438 55.117188 60.867188 C 55.117188 60.0625 55.875 59.46875 56.941406 59.46875 C 57.675781 59.46875 57.722656 59.515625 57.722656 60.25 Z M 57.722656 60.25 "/>
<path style=" stroke:none;fill-rule:nonzero;fill:rgb(13%,13%,13%);fill-opacity:1;" d="M 63.421875 55.109375 C 62.710938 55.703125 62.6875 55.703125 62.6875 55.226562 C 62.6875 54.847656 62.546875 54.730469 62.097656 54.730469 L 61.507812 54.730469 L 61.507812 63.261719 L 62.925781 63.261719 L 62.925781 60.296875 C 62.925781 56.933594 63.234375 55.914062 64.203125 55.914062 C 64.511719 55.914062 64.867188 56.058594 65.007812 56.222656 C 65.171875 56.414062 65.316406 57.90625 65.339844 59.847656 L 65.410156 63.140625 L 66.191406 63.210938 L 66.945312 63.285156 L 66.945312 60.132812 C 66.945312 56.695312 67.183594 55.914062 68.222656 55.914062 C 69.21875 55.914062 69.3125 56.292969 69.3125 59.894531 L 69.3125 63.285156 L 70.09375 63.210938 L 70.851562 63.140625 L 70.921875 60.890625 C 71.039062 57.480469 70.804688 55.726562 70.140625 55.0625 C 69.429688 54.375 68.507812 54.328125 67.46875 54.96875 L 66.6875 55.441406 L 66.070312 54.96875 C 65.242188 54.328125 64.296875 54.375 63.421875 55.109375 Z M 63.421875 55.109375 "/>
<path style=" stroke:none;fill-rule:nonzero;fill:rgb(13%,13%,13%);fill-opacity:1;" d="M 72.859375 59.019531 L 72.859375 63.285156 L 73.640625 63.210938 L 74.398438 63.140625 L 74.46875 58.925781 L 74.515625 54.730469 L 72.859375 54.730469 Z M 72.859375 59.019531 "/>
</g>
</svg>
