<svg id="eE6uy2DxfZU1" xmlns="http://www.w3.org/2000/svg" xmlns:xlink="http://www.w3.org/1999/xlink" viewBox="0 0 191 142" shape-rendering="geometricPrecision" text-rendering="geometricPrecision" width="200px">
<g><g><path d="M186,10.4155h-180L6,129c0,6.627,5.3726,12,12,12h156c6.627,0,12-5.373,12-12v-118.5845Z" fill="#0b1120" stroke="#52adf9" stroke-width="1.5"/><path d="M186,9c0-4.41828-3.582-8-8-8L14,1C9.58173,1,6.00001,4.58172,6.00001,9v1.4155h89.99999h90L186,9Z" fill="#184080" stroke="#52adf9" stroke-width="1.5"/></g><g><g><path d="M19.0002,27h35.8228" fill="none" stroke="#cbd5e1" stroke-width="1.5" stroke-linecap="round"/><path d="M19.0002,45.7088h10.2692" fill="none" stroke="#cbd5e1" stroke-width="1.5" stroke-linecap="round"/><g><path d="M44.5536,36.1587h10.2692" fill="none" stroke="#cbd5e1" stroke-width="1.5" stroke-linecap="round"/><path d="M19,36.1587h19.5831" fill="none" stroke="#cbd5e1" stroke-width="1.5" stroke-linecap="round"/></g></g><g><path d="M135.723,99.3596h35.822" fill="none" stroke="#cbd5e1" stroke-width="1.5" stroke-linecap="round"/><g><path d="M145.992,108.518h-10.27" fill="none" stroke="#cbd5e1" stroke-width="1.5" stroke-linecap="round"/><path d="M171.546,108.518h-19.583" fill="none" stroke="#cbd5e1" stroke-width="1.5" stroke-linecap="round"/></g></g><g><g><g id="eE6uy2DxfZU20_tr" transform="translate(94.999977,68.000162) rotate(0)"><path d="M124.908,65.0676c-.029-.7685-.311-1.5058-.802-2.0978s-1.163-1.0058-1.912-1.1773c-1.311-.2848-2.633-.4984-3.964-.7018-.182-.0146-.355-.085-.495-.2015-.14-.1166-.241-.2735-.288-.4495-.397-1.0171-.834-2.0952-1.291-3.1326-.075-.1226-.108-.2657-.095-.4084s.071-.2777.166-.385c.793-1.0985,1.606-2.1868,2.348-3.3259.427-.6406.629-1.405.574-2.1729-.056-.7679-.365-1.4956-.879-2.0684-1.21-1.3324-2.511-2.5835-3.782-3.865-.627-.7124-1.504-1.1569-2.45-1.242-.945-.0851-1.887.1955-2.632.7843-.997.678-1.983,1.3798-2.959,2.1054-.106.0966-.24.1566-.383.1712-.142.0147-.286-.0168-.41-.0899-1.118-.4983-2.246-1.0171-3.395-1.3934-.138-.039-.261-.1195-.351-.2304-.091-.1109-.146-.247-.157-.39-.193-1.2104-.397-2.4207-.6-3.6311-.125-.8513-.545-1.6319-1.1856-2.206-.6407-.5741-1.4621-.9056-2.3217-.9368-1.8705-.0509-3.741,0-5.6013,0-.7938.0146-1.5596.2951-2.1752.7966-.6155.5016-1.0452,1.1952-1.2202,1.9699-.2948,1.3629-.4981,2.736-.732,4.0684-.0139.1421-.0696.2769-.1601.3873-.0904.1105-.2116.1916-.3481.2331-1.098.4272-2.1755.8951-3.2531,1.3731-.1141.07-.2476.1019-.381.0909-.1335-.011-.2599-.0642-.3611-.1519-1.0776-.8035-2.1552-1.5968-3.2734-2.3393-.6436-.4387-1.415-.6499-2.1921-.6001-.7772.0497-1.5154.3576-2.0979.8747-1.4232,1.3019-2.8057,2.6648-4.0663,4.0684-.6189.627-.9849,1.4603-1.0281,2.3404-.0431.8801.2397,1.7453.7943,2.4298.7217,1.0171,1.4842,2.0342,2.206,3.1327.0459.0849.0741.1783.0829.2745.0087.0961-.0022.1931-.0321.2849-.4473,1.1697-.9149,2.3393-1.4131,3.4988-.0443.0864-.106.1626-.1812.2239-.0753.0613-.1624.1063-.2559.1321-1.2097.2238-2.4195.4272-3.6292.6205-.8692.0908-1.6775.489-2.2794,1.1229-.602.634-.958,1.462-1.0041,2.3352-.061,1.9427-.0509,3.8955,0,5.8483.0368.7599.3194,1.4873.8053,2.0725s1.1487.9966,1.8886,1.1721c1.3825.3153,2.7956.5289,4.1985.7628.1337.0114.2607.0633.3642.1487s.1786.2003.2152.3294c.4372,1.1188.915,2.2071,1.4029,3.3056.0637.1095.0912.2364.0784.3624s-.0651.2449-.1495.3394c-.732,1.0171-1.4741,2.0342-2.1755,3.0513-.5516.7274-.8134,1.634-.7345,2.5437s.4928,1.7575,1.1614,2.3791c1.1691,1.19,2.3483,2.38,3.5377,3.5395.6335.7084,1.5164,1.1443,2.4638,1.2163.9474.0721,1.8859-.2253,2.6191-.8298c1.0166-.712,2.0332-1.4341,3.0498-2.1665.0926-.0773.2071-.1237.3273-.1328.1203-.0091.2404.0195.3436.082c1.0166.4475,2.0332.8849,3.1209,1.2815.1616.0451.3048.1403.4089.2718s.1638.2929.1706.4606c.183,1.2001.3863,2.3901.5896,3.5801.1108.8308.5053,1.5976,1.1168,2.1705.6114.5728,1.4021.9164,2.2379.9724c1.962.0712,3.924.061,5.886,0c.7695-.0371,1.5055-.3258,2.095-.8219.59-.4961,1-1.1722,1.168-1.9243.285-1.3222.488-2.6648.712-4.0074.008-.158.066-.3094.164-.4333s.233-.2142.385-.2583c1.108-.4272,2.185-.8747,3.263-1.3527.112-.0617.24-.0879.367-.0752s.247.0638.345.1464c1.016.7323,2.033,1.4442,3.049,2.1766.711.5145,1.574.7759,2.45.7424.813-.0083,1.592-.3287,2.176-.895c1.281-1.2104,2.521-2.4716,3.771-3.7124.73-.6322,1.186-1.5236,1.272-2.4858.085-.9623-.207-1.92-.814-2.671-.678-.9967-1.379-1.9833-2.104-2.9597-.083-.0975-.134-.2178-.147-.3449-.012-.1272.014-.2552.075-.3671.478-1.0883.936-2.1868,1.373-3.3056.04-.1384.122-.2608.235-.3502s.251-.1411.395-.1482c1.21-.183,2.419-.3865,3.629-.5899.853-.1141,1.639-.5253,2.219-1.1615s.917-1.4566.953-2.317c-.041-1.9325-.041-3.8548-.092-5.7669ZM94.9498,80.9038c-2.5579-.004-5.0572-.7669-7.1817-2.1923s-3.7786-3.4492-4.7533-5.8154-1.2261-4.9684-.7224-7.4775s1.7399-4.8124,3.5522-6.6185s4.1192-3.0338,6.629-3.5279s5.1097-.2324,7.4708.7521c2.3616.9845,4.3776,2.6475,5.7936,4.7786s2.169,4.6347,2.163,7.1939c-.011,3.4287-1.38,6.7131-3.808,9.1327-2.428,2.4197-5.7163,3.7771-9.1432,3.7743v0Z" transform="translate(-94.999977,-68.000162)" fill="#365314" stroke="#a3e635" stroke-width="1.5" stroke-linecap="round" stroke-linejoin="round"/></g></g></g></g><g><g id="eE6uy2DxfZU22_to" transform="translate(171,42.999901)"><g transform="translate(-171,-42.999901)"><path d="M183,23.75h-24c-4.004,0-7.25,3.2459-7.25,7.25v3.0999c0,4.0041,3.246,7.25,7.25,7.25h24c4.004,0,7.25-3.2459,7.25-7.25v-3.0999c0-4.0041-3.246-7.25-7.25-7.25Z" fill="#184080" stroke="#52adf9" stroke-width="1.5"/><path d="M190.25,32.1709h-38.5v22.8289c0,4.0041,3.246,7.25,7.25,7.25h24c4.004,0,7.25-3.2459,7.25-7.25v-22.8289Z" fill="#1e293b" stroke="#52adf9" stroke-width="1.5"/><g><path d="M179.065,47.2142c0-1.9665-.684-3.8722-1.937-5.3923-1.252-1.5201-2.995-2.5607-4.931-2.9443-1.936-.3837-3.946-.0867-5.687.8403s-3.105,2.4267-3.861,4.2435c-.755,1.8169-.855,3.8384-.282,5.7203.573,1.8818,1.784,3.5075,3.425,4.6s3.612,1.5844,5.577,1.3916c1.964-.1927,3.801-1.0581,5.197-2.4487" fill="none" stroke="#52adf9" stroke-width="1.5" stroke-linecap="round"/><path d="M179.065,50.0199l-3.408-4.2107h6.816l-3.408,4.2107Z" fill="#52adf9"/><path d="M173.304,49.7999l-2.536-2.5262v-3.7096" fill="none" stroke="#52adf9" stroke-width="1.5" stroke-linecap="round"/></g></g></g><g id="eE6uy2DxfZU29_to" transform="translate(20,91)"><g transform="translate(-20,-91)"><path d="M32,71.75h-24c-4.00406,0-7.25,3.2459-7.25,7.25v24c0,4.004,3.24594,7.25,7.25,7.25h24c4.0041,0,7.25-3.246,7.25-7.25v-24c0-4.0041-3.2459-7.25-7.25-7.25Z" fill="#1e293b" stroke="#52adf9" stroke-width="1.5"/><path d="M24.1652,82.8715h-4.7396L13.3571,93.3202h6.0685L17.63,100.609l9.0129-11.5617h-5.9607l3.483-6.1758Z" fill="#52adf9"/></g></g></g><g><path d="M48,124v6h-8c-1.6569,0-3-1.343-3-3v0c0-1.657,1.3431-3,3-3h8Z" fill="#196fde"/><g id="eE6uy2DxfZU34_ts" transform="translate(39.999372,127) scale(1.641791,1)"><path d="M40,124h8v6h-8" transform="translate(-40,-127)" fill="#196fde"/></g><path d="M40,131c-2.2091,0-4-1.791-4-4v0c0-2.209,1.7909-4,4-4h112c2.209,0,4,1.791,4,4v0c0,2.209-1.791,4-4,4h-112Z" fill="none" stroke="#52adf9" stroke-width="1.5"/></g></g></svg>
