<svg width="191" height="142" viewBox="0 0 191 142" fill="none" xmlns="http://www.w3.org/2000/svg">
<g id="Group 808">
<g id="frames/window(180x140)">
<path id="Rectangle 707" d="M186 10.4155H6V129C6 135.627 11.3726 141 18 141H174C180.627 141 186 135.627 186 129V10.4155Z" fill="#0B1120" stroke="#52ADF9" stroke-width="1.5"/>
<path id="Rectangle 708" d="M186 9C186 4.58172 182.418 1 178 1H14C9.58173 1 6.00001 4.58172 6.00001 9V10.4155H96H186V9Z" fill="#184080" stroke="#52ADF9" stroke-width="1.5"/>
</g>
<g id="Group 573">
<g id="Group 570">
<path id="Vector 57" d="M19.0002 27H54.823" stroke="#CBD5E1" stroke-width="1.5" stroke-linecap="round"/>
<path id="Vector 60" d="M19.0002 45.7088L29.2694 45.7088" stroke="#CBD5E1" stroke-width="1.5" stroke-linecap="round"/>
<g id="Group 567">
<path id="Vector 58" d="M44.5536 36.1587L54.8228 36.1587" stroke="#CBD5E1" stroke-width="1.5" stroke-linecap="round"/>
<path id="Vector 59" d="M19 36.1587H38.5831" stroke="#CBD5E1" stroke-width="1.5" stroke-linecap="round"/>
</g>
</g>
<g id="Group 572">
<path id="Vector 61" d="M135.723 99.3596H171.545" stroke="#CBD5E1" stroke-width="1.5" stroke-linecap="round"/>
<g id="Group 568">
<path id="Vector 58_2" d="M145.992 108.518L135.722 108.518" stroke="#CBD5E1" stroke-width="1.5" stroke-linecap="round"/>
<path id="Vector 59_2" d="M171.546 108.518L151.963 108.518" stroke="#CBD5E1" stroke-width="1.5" stroke-linecap="round"/>
</g>
</g>
<g id="Group 566">
<g id="elements/cogwheel">
<path id="Gear" d="M124.908 65.0676C124.879 64.2991 124.597 63.5618 124.106 62.9698C123.615 62.3778 122.943 61.964 122.194 61.7925C120.883 61.5077 119.561 61.2941 118.23 61.0907C118.048 61.0761 117.875 61.0057 117.735 60.8892C117.595 60.7726 117.494 60.6157 117.447 60.4397C117.05 59.4226 116.613 58.3445 116.156 57.3071C116.081 57.1845 116.048 57.0414 116.061 56.8987C116.074 56.7559 116.132 56.621 116.227 56.5137C117.02 55.4152 117.833 54.3269 118.575 53.1878C119.002 52.5472 119.204 51.7828 119.149 51.0149C119.093 50.247 118.784 49.5193 118.27 48.9465C117.06 47.6141 115.759 46.363 114.488 45.0815C113.861 44.3691 112.984 43.9246 112.038 43.8395C111.093 43.7544 110.151 44.035 109.406 44.6238C108.409 45.3018 107.423 46.0036 106.447 46.7292C106.341 46.8258 106.207 46.8858 106.064 46.9004C105.922 46.9151 105.778 46.8836 105.654 46.8105C104.536 46.3122 103.408 45.7934 102.259 45.4171C102.121 45.3781 101.998 45.2976 101.908 45.1867C101.817 45.0758 101.762 44.9397 101.751 44.7967C101.558 43.5863 101.354 42.376 101.151 41.1656C101.026 40.3143 100.606 39.5337 99.9654 38.9596C99.3247 38.3855 98.5033 38.054 97.6437 38.0228C95.7732 37.9719 93.9027 38.0228 92.0424 38.0228C91.2486 38.0374 90.4828 38.3179 89.8672 38.8194C89.2517 39.321 88.822 40.0146 88.647 40.7893C88.3522 42.1522 88.1489 43.5253 87.915 44.8577C87.9011 44.9998 87.8454 45.1346 87.7549 45.245C87.6645 45.3555 87.5433 45.4366 87.4068 45.4781C86.3088 45.9053 85.2313 46.3732 84.1537 46.8512C84.0396 46.9212 83.9061 46.9531 83.7727 46.9421C83.6392 46.9311 83.5128 46.8779 83.4116 46.7902C82.334 45.9867 81.2564 45.1934 80.1382 44.4509C79.4946 44.0122 78.7232 43.801 77.9461 43.8508C77.1689 43.9005 76.4307 44.2084 75.8482 44.7255C74.425 46.0274 73.0425 47.3903 71.7819 48.7939C71.163 49.4209 70.797 50.2542 70.7538 51.1343C70.7107 52.0144 70.9935 52.8796 71.5481 53.5641C72.2698 54.5812 73.0323 55.5983 73.7541 56.6968C73.8 56.7817 73.8282 56.8751 73.837 56.9713C73.8457 57.0674 73.8348 57.1644 73.8049 57.2562C73.3576 58.4259 72.89 59.5955 72.3918 60.755C72.3475 60.8414 72.2858 60.9176 72.2106 60.9789C72.1353 61.0402 72.0482 61.0852 71.9547 61.111C70.745 61.3348 69.5352 61.5382 68.3255 61.7315C67.4563 61.8223 66.648 62.2205 66.0461 62.8544C65.4441 63.4884 65.0881 64.3164 65.042 65.1896C64.981 67.1323 64.9911 69.0851 65.042 71.0379C65.0788 71.7978 65.3614 72.5252 65.8473 73.1104C66.3332 73.6956 66.996 74.107 67.7359 74.2825C69.1184 74.5978 70.5315 74.8114 71.9344 75.0453C72.0681 75.0567 72.1951 75.1086 72.2986 75.194C72.4021 75.2794 72.4772 75.3943 72.5138 75.5234C72.951 76.6422 73.4288 77.7305 73.9167 78.829C73.9804 78.9385 74.0079 79.0654 73.9951 79.1914C73.9823 79.3175 73.93 79.4363 73.8456 79.5308C73.1136 80.5479 72.3715 81.565 71.6701 82.5821C71.1185 83.3095 70.8567 84.2161 70.9356 85.1258C71.0145 86.0355 71.4284 86.8833 72.097 87.5049C73.2661 88.6949 74.4453 89.8849 75.6347 91.0444C76.2682 91.7528 77.1511 92.1887 78.0985 92.2607C79.0459 92.3328 79.9844 92.0354 80.7176 91.4309C81.7342 90.7189 82.7508 89.9968 83.7674 89.2644C83.86 89.1871 83.9745 89.1407 84.0947 89.1316C84.215 89.1225 84.3351 89.1511 84.4383 89.2136C85.4549 89.6611 86.4715 90.0985 87.5592 90.4951C87.7208 90.5402 87.864 90.6354 87.9681 90.7669C88.0722 90.8985 88.1319 91.0598 88.1387 91.2275C88.3217 92.4276 88.525 93.6176 88.7283 94.8076C88.8391 95.6384 89.2336 96.4052 89.8451 96.9781C90.4565 97.5509 91.2472 97.8945 92.083 97.9505C94.045 98.0217 96.007 98.0115 97.969 97.9505C98.7385 97.9134 99.4745 97.6247 100.064 97.1286C100.654 96.6325 101.064 95.9564 101.232 95.2043C101.517 93.8821 101.72 92.5395 101.944 91.1969C101.952 91.0389 102.01 90.8875 102.108 90.7636C102.206 90.6396 102.341 90.5494 102.493 90.5053C103.601 90.0781 104.678 89.6306 105.756 89.1526C105.868 89.0909 105.996 89.0647 106.123 89.0774C106.25 89.0901 106.37 89.1412 106.468 89.2238C107.484 89.9561 108.501 90.668 109.517 91.4004C110.228 91.9149 111.091 92.1763 111.967 92.1428C112.78 92.1345 113.559 91.8141 114.143 91.2478C115.424 90.0374 116.664 88.7762 117.914 87.5354C118.644 86.9032 119.1 86.0118 119.186 85.0496C119.271 84.0873 118.979 83.1296 118.372 82.3786C117.694 81.3819 116.993 80.3953 116.268 79.4189C116.185 79.3214 116.134 79.2011 116.121 79.074C116.109 78.9468 116.135 78.8188 116.196 78.7069C116.674 77.6186 117.132 76.5201 117.569 75.4013C117.609 75.2629 117.691 75.1405 117.804 75.0511C117.917 74.9618 118.055 74.91 118.199 74.9029C119.409 74.7199 120.618 74.5164 121.828 74.313C122.681 74.1989 123.467 73.7877 124.047 73.1515C124.627 72.5153 124.964 71.6949 125 70.8345C124.959 68.902 124.959 66.9797 124.908 65.0676ZM94.9498 80.9038C92.3919 80.8998 89.8926 80.1369 87.7681 78.7115C85.6437 77.2861 83.9895 75.2623 83.0148 72.8961C82.0401 70.53 81.7887 67.9277 82.2924 65.4186C82.7961 62.9095 84.0323 60.6062 85.8446 58.8001C87.6569 56.994 89.9638 55.7663 92.4736 55.2722C94.9834 54.7781 97.5833 55.0398 99.9444 56.0243C102.306 57.0088 104.322 58.6718 105.738 60.8029C107.154 62.934 107.907 65.4376 107.901 67.9968C107.89 71.4255 106.521 74.7099 104.093 77.1295C101.665 79.5492 98.3767 80.9066 94.9498 80.9038V80.9038Z" fill="#365314" stroke="#A3E635" stroke-width="1.5" stroke-linecap="round" stroke-linejoin="round"/>
</g>
</g>
</g>
<g id="Group 807">
<g id="Float-Right">
<path id="Rectangle 3107" d="M183 23.75H159C154.996 23.75 151.75 26.9959 151.75 31V34.0999C151.75 38.104 154.996 41.3499 159 41.3499H183C187.004 41.3499 190.25 38.104 190.25 34.0999V31C190.25 26.9959 187.004 23.75 183 23.75Z" fill="#184080" stroke="#52ADF9" stroke-width="1.5"/>
<path id="Rectangle 3108" d="M190.25 32.1709H151.75V54.9998C151.75 59.0039 154.996 62.2498 159 62.2498H183C187.004 62.2498 190.25 59.0039 190.25 54.9998V32.1709Z" fill="#1E293B" stroke="#52ADF9" stroke-width="1.5"/>
<g id="Group 569">
<path id="Ellipse 477" d="M179.065 47.2142C179.065 45.2477 178.381 43.342 177.128 41.8219C175.876 40.3018 174.133 39.2612 172.197 38.8776C170.261 38.4939 168.251 38.7909 166.51 39.7179C164.769 40.6449 163.405 42.1446 162.649 43.9614C161.894 45.7783 161.794 47.7998 162.367 49.6817C162.94 51.5635 164.151 53.1892 165.792 54.2817C167.433 55.3743 169.404 55.8661 171.369 55.6733C173.333 55.4806 175.17 54.6152 176.566 53.2246" stroke="#52ADF9" stroke-width="1.5" stroke-linecap="round"/>
<path id="Polygon 2" d="M179.065 50.0199L175.657 45.8092L182.473 45.8092L179.065 50.0199Z" fill="#52ADF9"/>
<path id="Vector 63" d="M173.304 49.7999L170.768 47.2737V43.5641" stroke="#52ADF9" stroke-width="1.5" stroke-linecap="round"/>
</g>
</g>
<g id="Float-Left">
<path id="Rectangle 702" d="M32 71.75H8C3.99594 71.75 0.75 74.9959 0.75 79V103C0.75 107.004 3.99594 110.25 8 110.25H32C36.0041 110.25 39.25 107.004 39.25 103V79C39.25 74.9959 36.0041 71.75 32 71.75Z" fill="#1E293B" stroke="#52ADF9" stroke-width="1.5"/>
<path id="Vector 33" d="M24.1652 82.8715H19.4256L13.3571 93.3202H19.4256L17.63 100.609L26.6429 89.0473H20.6822L24.1652 82.8715Z" fill="#52ADF9"/>
</g>
</g>
<g id="elements/progress- bar">
<g id="bar">
<g id="Group 518">
<g id="Group 457">
<g id="Group 224">
<path id="Rectangle 701" d="M38.0003 131L38.0003 123L154 123C156.209 123 158 124.791 158 127V127C158 129.209 156.209 131 154 131L38.0003 131Z" stroke="#52ADF9" stroke-width="1.5"/>
</g>
</g>
</g>
</g>
<g id="fill">
<g id="Group 519">
<g id="Group 518_2">
<g id="Group 457_2">
<g id="Group 224_2">
<path id="Loading" d="M152 123L152 131L38 131C35.7909 131 34 129.209 34 127V127C34 124.791 35.7909 123 38 123L152 123Z" fill="#196FDE" stroke="#52ADF9" stroke-width="1.5"/>
</g>
</g>
</g>
</g>
</g>
</g>
</g>
</svg>
